# xmcd
#
# Track frame offsets:
#	150
#	11692
#	20747
#	29645
#	40940
#	52147
#	60430
#	71810
#	86160
#	94485
#	107925
#	120352
#	136807
#	149845
#	160897
#	173275
#	183652
#	194767
#	208770
#	217090
#	228450
#	239615
#	250055
#	260442
#	273052
#	283312
#	297060
#	307670
#	317185
#	327250
#	337392
#
# Disc length: 4631 seconds
# Revision: 4
# Processed by: cddbd v1.5.2PL0 Copyright (c) Steve Scherf et al.
# Submitted via: dBpowerAMP V12.0
#
DISCID=ee12151f
DTITLE=Marty Robbins - Country 1951-1958, CD04 - CD05
DYEAR=1991
DGENRE=Country
TTITLE0=You Only Want Me When You're Lonely
TTITLE1=Crying Steel Guitar Waltz
TTITLE2=Beautiful Ohio
TTITLE3=Now Is the Hour
TTITLE4=Down Where the Tradewinds Blow
TTITLE5=Sweet Leilani
TTITLE6=Beyond the Reef
TTITLE7=Constancy (Ua Like No More)
TTITLE8=Don't Sing Aloha When I Go
TTITLE9=Song of the Islands
TTITLE10=Moonland
TTITLE11=Island Echoes
TTITLE12=My Isle of Golden Dreams
TTITLE13=Aloha Oe (Farewell to Thee)
TTITLE14=A Faded Petal from a Beautiful Bouquet
TTITLE15=Then I Turned and Slowly Walked Away
TTITLE16=Jodie (Judy)
TTITLE17=A House With Everything But Love
TTITLE18=Nothing But Sweet Lies
TTITLE19=Baby I Need You (Like You Need Me)
TTITLE20=Kaw-Liga
TTITLE21=Paper-Face
TTITLE22=Many Tears Ago
TTITLE23=Address Unknown
TTITLE24=Waltz of the Wind
TTITLE25=The Hands You're Holding Now
TTITLE26=Shackles and Chains
TTITLE27=Oh, How I Miss You (Since You Went Away)
TTITLE28=Footprints in the Snow
TTITLE29=Wedding Bells
TTITLE30=It's Driving Me Crazy
EXTD=
EXTT0=
EXTT1=
EXTT2=
EXTT3=
EXTT4=
EXTT5=
EXTT6=
EXTT7=
EXTT8=
EXTT9=
EXTT10=
EXTT11=
EXTT12=
EXTT13=
EXTT14=
EXTT15=
EXTT16=
EXTT17=
EXTT18=
EXTT19=
EXTT20=
EXTT21=
EXTT22=
EXTT23=
EXTT24=
EXTT25=
EXTT26=
EXTT27=
EXTT28=
EXTT29=
EXTT30=
PLAYORDER=
